<svg id="visual" viewBox="0 0 980 300" width="980" height="300" xmlns="http://www.w3.org/2000/svg" xmlns:xlink="http://www.w3.org/1999/xlink" version="1.1"><rect x="0" y="0" width="980" height="300" fill="#D5E8F5"></rect><path d="M0 296L27.2 293.3C54.3 290.7 108.7 285.3 163.2 281.5C217.7 277.7 272.3 275.3 326.8 276.7C381.3 278 435.7 283 490 283.8C544.3 284.7 598.7 281.3 653.2 279.3C707.7 277.3 762.3 276.7 816.8 277.3C871.3 278 925.7 280 952.8 281L980 282L980 301L952.8 301C925.7 301 871.3 301 816.8 301C762.3 301 707.7 301 653.2 301C598.7 301 544.3 301 490 301C435.7 301 381.3 301 326.8 301C272.3 301 217.7 301 163.2 301C108.7 301 54.3 301 27.2 301L0 301Z" fill="#000" stroke-linecap="round" stroke-linejoin="miter"></path></svg>