<svg id="visual" viewBox="0 0 980 300" width="980" height="300" xmlns="http://www.w3.org/2000/svg" xmlns:xlink="http://www.w3.org/1999/xlink" version="1.1"><rect x="0" y="0" width="980" height="300" fill="#07261F"></rect><path d="M0 284L11.7 283.2C23.3 282.3 46.7 280.7 70 281.5C93.3 282.3 116.7 285.7 140 286C163.3 286.3 186.7 283.7 210 282.3C233.3 281 256.7 281 280 280.5C303.3 280 326.7 279 350 280.5C373.3 282 396.7 286 420 287.3C443.3 288.7 466.7 287.3 490 287.3C513.3 287.3 536.7 288.7 560 289.3C583.3 290 606.7 290 630 289C653.3 288 676.7 286 700 285.3C723.3 284.7 746.7 285.3 770 285.3C793.3 285.3 816.7 284.7 840 283.3C863.3 282 886.7 280 910 280.3C933.3 280.7 956.7 283.3 968.3 284.7L980 286L980 301L968.3 301C956.7 301 933.3 301 910 301C886.7 301 863.3 301 840 301C816.7 301 793.3 301 770 301C746.7 301 723.3 301 700 301C676.7 301 653.3 301 630 301C606.7 301 583.3 301 560 301C536.7 301 513.3 301 490 301C466.7 301 443.3 301 420 301C396.7 301 373.3 301 350 301C326.7 301 303.3 301 280 301C256.7 301 233.3 301 210 301C186.7 301 163.3 301 140 301C116.7 301 93.3 301 70 301C46.7 301 23.3 301 11.7 301L0 301Z" fill="#fff" stroke-linecap="round" stroke-linejoin="miter"></path></svg>