<svg id="visual" viewBox="0 0 980 300" width="980" height="300" xmlns="http://www.w3.org/2000/svg" xmlns:xlink="http://www.w3.org/1999/xlink" version="1.1"><rect x="0" y="0" width="980" height="300" fill="#07261F"></rect><path d="M0 261L20.5 262.7C41 264.3 82 267.7 122.8 269.3C163.7 271 204.3 271 245.2 263.3C286 255.7 327 240.3 367.8 231C408.7 221.7 449.3 218.3 490.2 220C531 221.7 572 228.3 612.8 234.2C653.7 240 694.3 245 735.2 246.3C776 247.7 817 245.3 857.8 244.7C898.7 244 939.3 245 959.7 245.5L980 246L980 301L959.7 301C939.3 301 898.7 301 857.8 301C817 301 776 301 735.2 301C694.3 301 653.7 301 612.8 301C572 301 531 301 490.2 301C449.3 301 408.7 301 367.8 301C327 301 286 301 245.2 301C204.3 301 163.7 301 122.8 301C82 301 41 301 20.5 301L0 301Z" fill="#fff" stroke-linecap="round" stroke-linejoin="miter"></path></svg>