<svg id="visual" viewBox="0 0 980 300" width="980" height="300" xmlns="http://www.w3.org/2000/svg" xmlns:xlink="http://www.w3.org/1999/xlink" version="1.1"><rect x="0" y="0" width="980" height="300" fill="#D5E8F5"></rect><path d="M0 282L23.3 281.5C46.7 281 93.3 280 140 279.7C186.7 279.3 233.3 279.7 280 280.7C326.7 281.7 373.3 283.3 420 285.2C466.7 287 513.3 289 560 288.7C606.7 288.3 653.3 285.7 700 284C746.7 282.3 793.3 281.7 840 282.3C886.7 283 933.3 285 956.7 286L980 287L980 301L956.7 301C933.3 301 886.7 301 840 301C793.3 301 746.7 301 700 301C653.3 301 606.7 301 560 301C513.3 301 466.7 301 420 301C373.3 301 326.7 301 280 301C233.3 301 186.7 301 140 301C93.3 301 46.7 301 23.3 301L0 301Z" fill="#07261F" stroke-linecap="round" stroke-linejoin="miter"></path></svg>