<svg id="visual" viewBox="0 0 980 300" width="980" height="300" xmlns="http://www.w3.org/2000/svg" xmlns:xlink="http://www.w3.org/1999/xlink" version="1.1"><rect x="0" y="0" width="980" height="300" fill="#fff"></rect><path d="M0 7L14.8 7.3C29.7 7.7 59.3 8.3 89 8.3C118.7 8.3 148.3 7.7 178 10.2C207.7 12.7 237.3 18.3 267 19.5C296.7 20.7 326.3 17.3 356 13.8C385.7 10.3 415.3 6.7 445.2 4.5C475 2.3 505 1.7 534.8 2.2C564.7 2.7 594.3 4.3 624 8.5C653.7 12.7 683.3 19.3 713 22.8C742.7 26.3 772.3 26.7 802 25.3C831.7 24 861.3 21 891 18.3C920.7 15.7 950.3 13.3 965.2 12.2L980 11L980 0L965.2 0C950.3 0 920.7 0 891 0C861.3 0 831.7 0 802 0C772.3 0 742.7 0 713 0C683.3 0 653.7 0 624 0C594.3 0 564.7 0 534.8 0C505 0 475 0 445.2 0C415.3 0 385.7 0 356 0C326.3 0 296.7 0 267 0C237.3 0 207.7 0 178 0C148.3 0 118.7 0 89 0C59.3 0 29.7 0 14.8 0L0 0Z" fill="#07261F" stroke-linecap="round" stroke-linejoin="miter"></path></svg>